<svg>
  <symbol id="brigadier" xmlns="http://www.w3.org/2000/svg" viewBox="0 0 26 26" >
    <path d="M13.4453 9.25586H19.7453" fill="none" stroke="currentColor" stroke-width="1.5" stroke-linecap="round" stroke-linejoin="round" />
    <path d="M6.25391 9.25605L7.15391 10.1561L9.85391 7.45605" stroke="currentColor"  stroke-width="1.5" stroke-linecap="round" stroke-linejoin="round"/>
    <path d="M13.4453 17.6558H19.7453" fill="none" stroke="currentColor" stroke-width="1.5" stroke-linecap="round" stroke-linejoin="round"/>
    <path d="M6.25391 17.656L7.15391 18.556L9.85391 15.856" fill="none" stroke="currentColor"  stroke-width="1.5" stroke-linecap="round" stroke-linejoin="round"/>
    <path d="M9.4 25H16.6C22.6 25 25 22.6 25 16.6V9.4C25 3.4 22.6 1 16.6 1H9.4C3.4 1 1 3.4 1 9.4V16.6C1 22.6 3.4 25 9.4 25Z" fill="none" stroke="currentColor" stroke-width="1.5" stroke-linecap="round" stroke-linejoin="round"/>
  </symbol>
  <symbol id="verification" xmlns="http://www.w3.org/2000/svg" viewBox="0 0 24 24" >
    <path d="M5 22H19C20.103 22 21 21.103 21 20V5C21 3.897 20.103 3 19 3H17C17 2.73478 16.8946 2.48043 16.7071 2.29289C16.5196 2.10536 16.2652 2 16 2H8C7.73478 2 7.48043 2.10536 7.29289 2.29289C7.10536 2.48043 7 2.73478 7 3H5C3.897 3 3 3.897 3 5V20C3 21.103 3.897 22 5 22ZM5 5H7V7H17V5H19V20H5V5Z" fill="currentColor" stroke="none"  />
    <path d="M11 13.586L9.20697 11.793L7.79297 13.207L11 16.414L16.207 11.207L14.793 9.79297L11 13.586Z" fill="currentColor" stroke="none" />
  </symbol>
  <symbol id="greenhouse" xmlns="http://www.w3.org/2000/svg" viewBox="0 0 24 24" >
    <path fill-rule="evenodd" clip-rule="evenodd" d="M12 2L22 10V20C22 21.1046 21.1046 22 20 22H4C2.89543 22 2 21.1046 2 20V10L12 2ZM20 10.9612L12 4.56125L4 10.9613V20H11C8.79086 20 7 18.2091 7 16H8C10.2091 16 12 17.7909 12 20C12 17.7909 13.7909 16 16 16H17C17 18.2091 15.2091 20 13 20H20V10.9612ZM10 12L8 10V12C8 14.2091 9.79086 16 12 16C14.2091 16 16 14.2091 16 12V10L14 12L12 10L10 12Z" fill="currentColor" stroke="none" />
  </symbol>
  <symbol id="notification" xmlns="http://www.w3.org/2000/svg" viewBox="0 0 24 24" >
    <path d="M12 22C10.8954 22 10 21.1046 10 20H14C14 21.1046 13.1046 22 12 22ZM20 19H4V17L6 16V10.5C6 7.038 7.421 4.793 10 4.18V2H14V4.18C16.579 4.792 18 7.036 18 10.5V16L20 17V19ZM12 5.75C10.7797 5.6712 9.60278 6.21728 8.875 7.2C8.25255 8.18456 7.94714 9.33638 8 10.5V17H16V10.5C16.0528 9.33639 15.7474 8.18458 15.125 7.2C14.3972 6.21728 13.2203 5.6712 12 5.75Z" fill="currentColor" stroke="none" />
  </symbol>
  <symbol id="privacy" xmlns="http://www.w3.org/2000/svg" viewBox="0 0 24 24" >
    <path d="M12 3.19L19 6.3V11C19 15.52 16.02 19.69 12 20.93C7.98 19.69 5 15.52 5 11V6.3L12 3.19ZM12 1L3 5V11C3 16.55 6.84 21.74 12 23C17.16 21.74 21 16.55 21 11V5L12 1ZM11 7H13V9H11V7ZM11 11H13V17H11V11Z" fill="currentColor" stroke="none" />
  </symbol>
  <symbol id="exit" xmlns="http://www.w3.org/2000/svg" viewBox="0 0 24 24" >
    <path d="M4.5 22.5H13.5C13.8977 22.4995 14.279 22.3414 14.5602 22.0602C14.8414 21.7789 14.9995 21.3977 15 21V18.75H13.5V21H4.5V3H13.5V5.25H15V3C14.9995 2.60232 14.8414 2.22105 14.5602 1.93984C14.279 1.65864 13.8977 1.50046 13.5 1.5H4.5C4.10232 1.50046 3.72105 1.65864 3.43984 1.93984C3.15864 2.22105 3.00046 2.60232 3 3V21C3.00046 21.3977 3.15864 21.7789 3.43984 22.0602C3.72105 22.3414 4.10232 22.4995 4.5 22.5Z" fill="currentColor" stroke="none"/>
    <path d="M15.4395 15.4395L18.129 12.75H7.5V11.25H18.129L15.4395 8.5605L16.5 7.5L21 12L16.5 16.5L15.4395 15.4395Z" fill="currentColor" stroke="none"/>
  </symbol>
  <symbol id="salary" xmlns="http://www.w3.org/2000/svg" viewBox="0 0 26 22">
    <path d="M24.9991 12.4119V16.6472C24.9991 18.4817 20.5746 20.8825 15.1167 20.8825C9.65886 20.8825 5.23438 18.4817 5.23438 16.6472C5.23438 16.0436 5.23438 14.8671 5.23438 13.1177" fill="none" stroke="currentColor" stroke-width="2" stroke-linecap="round" stroke-linejoin="round"/>
    <path d="M5.64844 13.4827C6.86933 15.1038 10.6461 16.6238 15.1159 16.6238C20.5738 16.6238 24.9983 14.3576 24.9983 12.4083C24.9983 11.3145 23.6052 10.1157 21.418 9.27417" fill="none" stroke="currentColor" stroke-width="2" stroke-linecap="round" stroke-linejoin="round"/>
    <path d="M20.7647 5.35303V9.58832C20.7647 11.4229 16.3402 13.8236 10.8824 13.8236C5.42448 13.8236 1 11.4229 1 9.58832C1 8.68298 1 6.25837 1 5.35303" fill="none" stroke="currentColor" stroke-width="2" stroke-linecap="round" stroke-linejoin="round"/>
    <path fill-rule="evenodd" clip-rule="evenodd" d="M10.8824 9.56516C16.3402 9.56516 20.7647 7.29894 20.7647 5.3497C20.7647 3.40046 16.3402 1.11768 10.8824 1.11768C5.42448 1.11768 1 3.40046 1 5.3497C1 7.29894 5.42448 9.56516 10.8824 9.56516Z" fill="none" stroke="currentColor" stroke-width="2" stroke-linecap="round" stroke-linejoin="round"/>
  </symbol>
  <symbol id="disease" xmlns="http://www.w3.org/2000/svg" viewBox="0 0 25 26" >
    <path d="M12.4998 1.021C12.1121 1.02013 11.7342 1.14319 11.4214 1.37222C11.1085 1.60126 10.877 1.92428 10.7607 2.29415C10.6444 2.66403 10.6493 3.06139 10.7748 3.42826C10.9003 3.79513 11.1397 4.11231 11.4581 4.3335V5.79183C10.5206 5.92725 9.64563 6.22933 8.85397 6.68767L7.69772 5.03142C7.89563 4.48975 7.84355 3.86475 7.48939 3.36475C7.1248 2.85433 6.5623 2.5835 5.98939 2.5835C5.6248 2.5835 5.26022 2.68767 4.94772 2.91683C4.1248 3.48975 3.91647 4.62517 4.4998 5.44808C4.85397 5.9585 5.41647 6.22933 5.98939 6.22933L7.21855 7.97933C6.77063 8.42725 6.41647 8.92725 6.11439 9.47933C5.90605 9.396 5.6873 9.35433 5.46855 9.35433C4.9998 9.35433 4.53105 9.53142 4.16647 9.87517C3.46855 10.6043 3.46855 11.7502 4.16647 12.4793C4.46855 12.7606 4.83314 12.9168 5.20814 13.0002C5.20814 13.5627 5.28105 14.1043 5.39564 14.6252L4.03105 14.9898C3.70814 14.7189 3.29147 14.5627 2.86439 14.5627C2.70814 14.5627 2.54147 14.5627 2.38522 14.6252C1.91841 14.7524 1.52121 15.0597 1.28095 15.4797C1.04069 15.8997 0.977034 16.3979 1.10397 16.8648C1.32272 17.6877 2.08314 18.2085 2.86439 18.2085C3.02064 18.2085 3.17689 18.2085 3.34355 18.146C3.9373 17.9793 4.38522 17.5418 4.57272 17.0002L6.14564 16.5731C6.61439 17.396 7.23939 18.1252 7.96855 18.7293L6.82272 20.8127C6.2498 20.896 5.72897 21.2189 5.42689 21.771C5.31335 21.9817 5.24241 22.2126 5.21813 22.4507C5.19385 22.6888 5.2167 22.9293 5.28538 23.1586C5.35406 23.3878 5.46722 23.6013 5.61839 23.7868C5.76957 23.9723 5.95581 24.1262 6.16647 24.2398C6.37713 24.3533 6.60809 24.4242 6.84617 24.4485C7.08424 24.4728 7.32477 24.4499 7.55402 24.3813C7.78326 24.3126 7.99673 24.1994 8.18225 24.0482C8.36776 23.8971 8.52168 23.7108 8.63522 23.5002C8.92689 22.9585 8.91647 22.3335 8.65605 21.8231L9.77063 19.771C10.6144 20.1043 11.5311 20.2918 12.4998 20.2918H12.6873C12.5519 20.5627 12.4998 20.8752 12.4998 21.2085C12.5831 22.1668 13.3748 22.896 14.3227 22.896H14.4581C15.4686 22.8127 16.2186 21.9377 16.1456 20.9377C16.104 20.4168 15.8436 19.9585 15.4686 19.6564C15.9581 19.4377 16.4269 19.1564 16.8644 18.8335L19.3019 21.271C19.1977 21.8543 19.3644 22.4481 19.7915 22.896C20.156 23.2398 20.6248 23.4168 21.0935 23.4168C21.5623 23.4168 22.031 23.2398 22.3956 22.896C23.0935 22.1668 23.0935 21.021 22.3956 20.2918C22.031 19.9481 21.5623 19.771 21.0935 19.771C20.9894 19.771 20.8852 19.771 20.7706 19.8023L18.3331 17.3648C18.8435 16.6877 19.2394 15.9168 19.4894 15.0835H20.6456C20.8668 15.4019 21.184 15.6414 21.5509 15.7668C21.9177 15.8923 22.3151 15.8972 22.685 15.7809C23.0549 15.6646 23.3779 15.4331 23.6069 15.1203C23.8359 14.8074 23.959 14.4296 23.9581 14.0418C23.959 13.6541 23.8359 13.2762 23.6069 12.9634C23.3779 12.6505 23.0549 12.4191 22.685 12.3028C22.3151 12.1864 21.9177 12.1914 21.5509 12.3168C21.184 12.4423 20.8668 12.6817 20.6456 13.0002H19.7915C19.7915 11.3648 19.2706 9.87517 18.3331 8.63558L19.729 7.23975C19.8436 7.271 19.9477 7.271 20.0519 7.271C20.5206 7.271 20.9894 7.09392 21.354 6.75017C22.0519 6.03142 22.0519 4.87517 21.354 4.146C20.9894 3.80225 20.5206 3.62517 20.0519 3.62517C19.5831 3.62517 19.1144 3.80225 18.7498 4.146C18.3227 4.59392 18.1561 5.18767 18.2602 5.771L16.8644 7.16683C15.9061 6.44808 14.7811 5.96892 13.5415 5.79183V4.3335C13.8599 4.11231 14.0993 3.79513 14.2248 3.42826C14.3503 3.06139 14.3552 2.66403 14.2389 2.29415C14.1226 1.92428 13.8911 1.60126 13.5782 1.37222C13.2654 1.14319 12.8875 1.02013 12.4998 1.021ZM12.4998 18.2085C9.6248 18.2085 7.29147 15.8752 7.29147 13.0002C7.29147 10.1252 9.6248 7.79183 12.4998 7.79183C15.3748 7.79183 17.7081 10.1252 17.7081 13.0002C17.7081 15.8752 15.3748 18.2085 12.4998 18.2085ZM10.9373 9.87517C10.0727 9.87517 9.3748 10.5731 9.3748 11.4377C9.3748 12.3023 10.0727 13.0002 10.9373 13.0002C11.8019 13.0002 12.4998 12.3023 12.4998 11.4377C12.4998 10.5731 11.8019 9.87517 10.9373 9.87517ZM14.5831 14.0418C14.0102 14.0418 13.5415 14.5106 13.5415 15.0835C13.5415 15.6564 14.0102 16.1252 14.5831 16.1252C15.1561 16.1252 15.6248 15.6564 15.6248 15.0835C15.6248 14.5106 15.1561 14.0418 14.5831 14.0418Z" fill="currentColor" stroke="none" />
  </symbol>
  <symbol id="market" viewBox="0 0 25 25" fill="none" xmlns="http://www.w3.org/2000/svg">
    <g id="gridicons:stats">
    <path id="Vector" d="M19.7917 3.125H5.20833C4.6558 3.125 4.12589 3.34449 3.73519 3.73519C3.34449 4.12589 3.125 4.6558 3.125 5.20833V19.7917C3.125 20.3442 3.34449 20.8741 3.73519 21.2648C4.12589 21.6555 4.6558 21.875 5.20833 21.875H19.7917C20.3442 21.875 20.8741 21.6555 21.2648 21.2648C21.6555 20.8741 21.875 20.3442 21.875 19.7917V5.20833C21.875 4.6558 21.6555 4.12589 21.2648 3.73519C20.8741 3.34449 20.3442 3.125 19.7917 3.125ZM19.7917 19.7917H5.20833V5.20833H19.7917V19.7917ZM9.375 17.7083H7.29167V12.5H9.375V17.7083ZM13.5417 17.7083H11.4583V7.29167H13.5417V17.7083ZM17.7083 17.7083H15.625V10.4167H17.7083V17.7083Z" fill="currentColor" stroke="none" />
    </g>
  </symbol>
  <svg id="forecast" viewBox="0 0 25 25" fill="none" xmlns="http://www.w3.org/2000/svg">
    <g id="ic:twotone-query-stats">
    <path id="Vector" d="M20.7077 19.2397C21.166 18.5106 21.4368 17.6668 21.4368 16.7502C21.4368 14.1564 19.3431 12.0627 16.7493 12.0627C14.1556 12.0627 12.0618 14.1564 12.0618 16.7502C12.0618 19.3439 14.1556 21.4377 16.7389 21.4377C17.6556 21.4377 18.5098 21.1668 19.2285 20.7085L22.4785 23.9585L23.9577 22.4793L20.7077 19.2397ZM16.7493 19.3543C16.0587 19.3543 15.3963 19.08 14.9079 18.5916C14.4195 18.1032 14.1452 17.4408 14.1452 16.7502C14.1452 16.0595 14.4195 15.3971 14.9079 14.9087C15.3963 14.4204 16.0587 14.146 16.7493 14.146C17.44 14.146 18.1024 14.4204 18.5908 14.9087C19.0791 15.3971 19.3535 16.0595 19.3535 16.7502C19.3535 17.4408 19.0791 18.1032 18.5908 18.5916C18.1024 19.08 17.44 19.3543 16.7493 19.3543ZM16.3743 10.5002C15.6035 10.521 14.8639 10.6877 14.1868 10.9689L13.6139 10.1043L9.6556 16.5418L6.52018 12.8752L2.73893 18.9272L1.04102 17.7085L6.24935 9.37516L9.37435 13.021L13.541 6.25016L16.3743 10.5002ZM19.0723 11.021C18.4056 10.7293 17.6868 10.5522 16.9368 10.5106L22.2702 2.0835L23.9577 3.31266L19.0723 11.021Z" fill="currentColor" stroke="none" />
    </g>
  </svg>
  <symbol id="plant" viewBox="0 0 25 26" fill="none" xmlns="http://www.w3.org/2000/svg">
    <g id="tabler:plant">
    <path id="Vector" d="M12.5 13H15.625C17.2826 13 18.8723 12.3415 20.0444 11.1694C21.2165 9.99731 21.875 8.4076 21.875 6.75V5.70833H18.75C17.0924 5.70833 15.5027 6.36681 14.3306 7.53892C13.1585 8.71102 12.5 10.3007 12.5 11.9583H9.375C7.7174 11.9583 6.12769 11.2999 4.95558 10.1278C3.78348 8.95565 3.125 7.36594 3.125 5.70833V3.625H6.25C7.9076 3.625 9.49731 4.28348 10.6694 5.45558C11.8415 6.62769 12.5 8.2174 12.5 9.875V16.125M7.29167 16.125H17.7083V20.2917C17.7083 20.8442 17.4888 21.3741 17.0981 21.7648C16.7074 22.1555 16.1775 22.375 15.625 22.375H9.375C8.82247 22.375 8.29256 22.1555 7.90186 21.7648C7.51116 21.3741 7.29167 20.8442 7.29167 20.2917V16.125Z" fill="none" stroke="currentColor" stroke-width="2" stroke-linecap="round" stroke-linejoin="round"/>
    </g>
  </symbol>
  <symbol id="proposal" viewBox="0 0 25 26" fill="none" xmlns="http://www.w3.org/2000/svg">
    <g id="fluent:person-tag-20-regular">
    <path id="Vector" d="M6.25 8.00022C6.25005 7.16473 6.45945 6.34258 6.85908 5.60887C7.25871 4.87517 7.83583 4.2533 8.5377 3.80008C9.23957 3.34686 10.0438 3.07675 10.877 3.01442C11.7101 2.95209 12.5456 3.09953 13.3071 3.44327C14.0686 3.78701 14.7318 4.31609 15.2362 4.98217C15.7405 5.64825 16.0699 6.43009 16.1943 7.25626C16.3187 8.08244 16.234 8.92661 15.9481 9.71164C15.6622 10.4967 15.1841 11.1975 14.5575 11.7502H14.3912C13.3875 11.7502 12.4938 12.2215 11.9175 12.9565C11.2108 13.0517 10.4919 12.9946 9.80911 12.7891C9.12628 12.5836 8.49531 12.2344 7.95854 11.765C7.42176 11.2956 6.9916 10.7168 6.69692 10.0675C6.40224 9.41815 6.24986 8.71329 6.25 8.00022ZM11.25 4.25022C10.2554 4.25022 9.30161 4.6453 8.59835 5.34857C7.89509 6.05183 7.5 7.00565 7.5 8.00022C7.5 8.99478 7.89509 9.9486 8.59835 10.6519C9.30161 11.3551 10.2554 11.7502 11.25 11.7502C12.2446 11.7502 13.1984 11.3551 13.9017 10.6519C14.6049 9.9486 15 8.99478 15 8.00022C15 7.00565 14.6049 6.05183 13.9017 5.34857C13.1984 4.6453 12.2446 4.25022 11.25 4.25022ZM11.3163 14.2502H5.01125C4.68205 14.2489 4.35582 14.3126 4.05128 14.4376C3.74674 14.5626 3.46988 14.7466 3.23657 14.9788C3.00327 15.2111 2.81811 15.4871 2.69171 15.7911C2.56531 16.0951 2.50016 16.421 2.5 16.7502C2.5 18.864 3.54125 20.4577 5.16875 21.4965C6.77125 22.5177 8.93125 23.0002 11.25 23.0002C12.2537 23.0002 13.2287 22.9102 14.1412 22.7252L13.0737 21.6352C12.4937 21.7127 11.8837 21.7502 11.25 21.7502C9.08125 21.7502 7.17875 21.2952 5.84125 20.4415C4.52875 19.604 3.75 18.3877 3.75 16.7502C3.75 16.059 4.31 15.5002 5.01125 15.5002H11.2487V14.8952C11.2487 14.674 11.2738 14.4577 11.3163 14.2502ZM12.5 18.4877C12.5 18.984 12.6938 19.459 13.04 19.8127L16.8325 23.684C17.5575 24.424 18.7413 24.4415 19.4875 23.7227L23.1713 20.1765C23.3517 20.0025 23.4957 19.7944 23.5951 19.5643C23.6944 19.3343 23.7471 19.0867 23.75 18.8361C23.7529 18.5855 23.706 18.3368 23.612 18.1045C23.518 17.8722 23.3788 17.6608 23.2025 17.4827L19.3188 13.559C19.1434 13.3819 18.9347 13.2414 18.7047 13.1455C18.4747 13.0496 18.2279 13.0002 17.9788 13.0002H14.3875C14.1394 13.0002 13.8938 13.0491 13.6646 13.1441C13.4354 13.2391 13.2273 13.3784 13.052 13.5539C12.8766 13.7295 12.7377 13.9378 12.643 14.1671C12.5483 14.3964 12.4997 14.6421 12.5 14.8902V18.4877ZM15.9375 17.3752C15.6889 17.3752 15.4504 17.2764 15.2746 17.1006C15.0988 16.9248 15 16.6864 15 16.4377C15 16.1891 15.0988 15.9506 15.2746 15.7748C15.4504 15.599 15.6889 15.5002 15.9375 15.5002C16.1861 15.5002 16.4246 15.599 16.6004 15.7748C16.7762 15.9506 16.875 16.1891 16.875 16.4377C16.875 16.6864 16.7762 16.9248 16.6004 17.1006C16.4246 17.2764 16.1861 17.3752 15.9375 17.3752Z" fill="currentColor" stroke="none"/>
    </g>
  </symbol>
  

  <symbol id="search" xmlns="http://www.w3.org/2000/svg" viewBox="0 0 20 20" fill="none">
    <path d="M12.5796 4.9201C12.0783 4.40953 11.4808 4.00333 10.8217 3.72496C10.1626 3.44659 9.45478 3.30158 8.73928 3.29829C8.02377 3.295 7.3147 3.43351 6.65302 3.7058C5.99135 3.9781 5.39017 4.37879 4.88423 4.88474C4.37828 5.39069 3.97759 5.99186 3.70529 6.65354C3.433 7.31521 3.29449 8.02428 3.29778 8.73979C3.30107 9.4553 3.44608 10.1631 3.72445 10.8222C4.00281 11.4814 4.40901 12.0788 4.91959 12.5801C5.93855 13.5805 7.31133 14.1381 8.73928 14.1315C10.1672 14.1249 11.5348 13.5548 12.5445 12.5451C13.5543 11.5353 14.1244 10.1677 14.131 8.73979C14.1376 7.31184 13.58 5.93906 12.5796 4.9201ZM3.74125 3.74177C5.0186 2.46473 6.73555 1.72391 8.54099 1.67079C10.3464 1.61767 12.104 2.25627 13.4542 3.45599C14.8044 4.65571 15.6453 6.32593 15.8049 8.12508C15.9645 9.92423 15.4308 11.7164 14.3129 13.1351L18.7671 17.5893L17.5888 18.7676L13.1346 14.3134C11.7154 15.4272 9.92479 15.9576 8.12797 15.7964C6.33115 15.6352 4.66351 14.7946 3.46523 13.446C2.26696 12.0974 1.62833 10.3425 1.67962 8.53918C1.73092 6.73587 2.46826 5.02006 3.74125 3.74177Z" fill="currentColor" stroke="none"/>
  </symbol>

  <symbol id="start" xmlns="http://www.w3.org/2000/svg" viewBox="0 0 15 16" fill="none">
    <path d="M9.87125 8.65352L3.90594 12.1148C3.39969 12.4082 2.75 12.0529 2.75 11.4613V4.53883C2.75 3.94821 3.39875 3.59196 3.90594 3.88633L9.87125 7.34758C9.98641 7.41332 10.0821 7.50835 10.1487 7.62303C10.2153 7.7377 10.2504 7.86795 10.2504 8.00055C10.2504 8.13315 10.2153 8.2634 10.1487 8.37808C10.0821 8.49275 9.98641 8.58778 9.87125 8.65352Z" fill="#2DDB92"/>
  </symbol>
  <symbol id="pause" xmlns="http://www.w3.org/2000/svg" viewBox="0 0 15 16" fill="none">
    <path d="M9.7975 3.91889C10.0694 4.01889 10.25 4.27826 10.25 4.56826V11.4314C10.25 11.7214 10.0687 11.9808 9.7975 12.0808C9.28275 12.2705 8.71725 12.2705 8.2025 12.0808C8.06981 12.0318 7.95531 11.9434 7.8744 11.8274C7.7935 11.7114 7.75008 11.5734 7.75 11.432V4.56889C7.75 4.27889 7.93125 4.01951 8.2025 3.91889C8.71725 3.72919 9.28275 3.72919 9.7975 3.91889ZM4.7975 3.91889C5.06938 4.01889 5.25 4.27826 5.25 4.56826V11.4314C5.25 11.7214 5.06875 11.9808 4.7975 12.0808C4.28276 12.2705 3.71725 12.2705 3.2025 12.0808C3.06981 12.0318 2.95531 11.9434 2.8744 11.8274C2.7935 11.7114 2.75008 11.5734 2.75 11.432V4.56889C2.75 4.27889 2.93125 4.01951 3.2025 3.91889C3.71725 3.72919 4.28276 3.72919 4.7975 3.91889Z" fill="#FFCA7C"/>
  </symbol>
  <symbol id="stop" xmlns="http://www.w3.org/2000/svg" viewBox="0 0 15 16" fill="none">
    <path d="M8.92172 3.07803V6.9124L2.13281 2.99365V12.5393L8.92172 8.61865V12.453H10.9528V3.07803H8.92172Z" fill="#FF4242"/>
  </symbol>
  <symbol id="plus" xmlns="http://www.w3.org/2000/svg" viewBox="0 0 14 14" fill="none">
    <path d="M7 0V14" stroke="white" stroke-width="2"/>
    <path d="M0 7L14 7" stroke="white" stroke-width="2"/>
  </symbol>

  <symbol id="scan" viewBox="0 0 20 20" fill="none" xmlns="http://www.w3.org/2000/svg">
    <path id="Vector" d="M3.33333 3.33333H8.33333V8.33333H3.33333V3.33333ZM16.6667 3.33333V8.33333H11.6667V3.33333H16.6667ZM11.6667 12.5H13.3333V10.8333H11.6667V9.16667H13.3333V10.8333H15V9.16667H16.6667V10.8333H15V12.5H16.6667V15H15V16.6667H13.3333V15H10.8333V16.6667H9.16667V13.3333H11.6667V12.5ZM13.3333 12.5V15H15V12.5H13.3333ZM3.33333 16.6667V11.6667H8.33333V16.6667H3.33333ZM5 5V6.66667H6.66667V5H5ZM13.3333 5V6.66667H15V5H13.3333ZM5 13.3333V15H6.66667V13.3333H5ZM3.33333 9.16667H5V10.8333H3.33333V9.16667ZM7.5 9.16667H10.8333V12.5H9.16667V10.8333H7.5V9.16667ZM9.16667 5H10.8333V8.33333H9.16667V5ZM1.66667 1.66667V5H0V1.66667C0 1.22464 0.175595 0.800716 0.488155 0.488155C0.800716 0.175595 1.22464 0 1.66667 0L5 0V1.66667H1.66667ZM18.3333 0C18.7754 0 19.1993 0.175595 19.5118 0.488155C19.8244 0.800716 20 1.22464 20 1.66667V5H18.3333V1.66667H15V0H18.3333ZM1.66667 15V18.3333H5V20H1.66667C1.22464 20 0.800716 19.8244 0.488155 19.5118C0.175595 19.1993 0 18.7754 0 18.3333V15H1.66667ZM18.3333 18.3333V15H20V18.3333C20 18.7754 19.8244 19.1993 19.5118 19.5118C19.1993 19.8244 18.7754 20 18.3333 20H15V18.3333H18.3333Z" fill="white"/>
  </symbol>

  <symbol id="error" viewBox="0 0 24 24" fill="none" xmlns="http://www.w3.org/2000/svg">
    <g id="gridicons:cross-circle">
    <path id="Vector" d="M19.1 4.89998C15.2 0.999976 8.79998 0.999976 4.89998 4.89998C0.999976 8.79998 0.999976 15.2 4.89998 19.1C8.79998 23 15.1 23 19 19.1C22.9 15.2 23 8.79998 19.1 4.89998ZM14.8 16.2L12 13.4L9.19998 16.2L7.79998 14.8L10.6 12L7.79998 9.19998L9.19998 7.79998L12 10.6L14.8 7.79998L16.2 9.19998L13.4 12L16.2 14.8L14.8 16.2Z" fill="white"/>
    </g>
  </symbol>
  <svg id="success" viewBox="0 0 24 24" fill="none" xmlns="http://www.w3.org/2000/svg">
    <g id="material-symbols:check-circle">
    <path id="Vector" d="M10.6 16.6L17.65 9.55L16.25 8.15L10.6 13.8L7.75 10.95L6.35 12.35L10.6 16.6ZM12 22C10.6167 22 9.31667 21.7373 8.1 21.212C6.88333 20.6867 5.825 19.9743 4.925 19.075C4.025 18.175 3.31267 17.1167 2.788 15.9C2.26333 14.6833 2.00067 13.3833 2 12C2 10.6167 2.26267 9.31667 2.788 8.1C3.31333 6.88333 4.02567 5.825 4.925 4.925C5.825 4.025 6.88333 3.31267 8.1 2.788C9.31667 2.26333 10.6167 2.00067 12 2C13.3833 2 14.6833 2.26267 15.9 2.788C17.1167 3.31333 18.175 4.02567 19.075 4.925C19.975 5.825 20.6877 6.88333 21.213 8.1C21.7383 9.31667 22.0007 10.6167 22 12C22 13.3833 21.7373 14.6833 21.212 15.9C20.6867 17.1167 19.9743 18.175 19.075 19.075C18.175 19.975 17.1167 20.6877 15.9 21.213C14.6833 21.7383 13.3833 22.0007 12 22Z" fill="white"/>
    </g>
  </svg>

  <svg id='point' viewBox="0 0 20 20" fill="none" xmlns="http://www.w3.org/2000/svg">
    <path d="M14.2493 12.6794C15.235 13.0982 15.8327 13.6477 15.8327 14.2501C15.8327 15.5619 12.9969 16.6251 9.49935 16.6251C6.00177 16.6251 3.16602 15.5619 3.16602 14.2501C3.16602 13.6484 3.76372 13.0974 4.74935 12.6794" stroke="white" stroke-width="2" stroke-linecap="round" stroke-linejoin="round"/>
    <path fill-rule="evenodd" clip-rule="evenodd" d="M10.0842 13.9929L10.0882 13.9889L10.0977 13.9778L10.1333 13.9382L10.2648 13.791C10.9226 13.0418 11.543 12.2605 12.1236 11.45C12.6318 10.7375 13.1528 9.93004 13.5494 9.12808C13.9373 8.34433 14.25 7.4822 14.25 6.685C14.25 3.85637 12.1774 1.5835 9.5 1.5835C6.82258 1.5835 4.75 3.85558 4.75 6.685C4.75 7.4822 5.06271 8.34433 5.45063 9.12808C5.84725 9.93004 6.36896 10.7375 6.87563 11.45C7.49506 12.3139 8.15966 13.1445 8.86667 13.9382L8.90229 13.9778L8.91179 13.9889L8.91575 13.9929C8.98993 14.074 9.08018 14.1388 9.18077 14.1831C9.28136 14.2274 9.39008 14.2503 9.5 14.2503C9.60992 14.2503 9.71864 14.2274 9.81923 14.1831C9.91982 14.1388 10.0101 14.074 10.0842 13.9929ZM9.5 4.75016C9.08007 4.75016 8.67735 4.91698 8.38041 5.21391C8.08348 5.51084 7.91667 5.91357 7.91667 6.3335C7.91667 6.75342 8.08348 7.15615 8.38041 7.45308C8.67735 7.75001 9.08007 7.91683 9.5 7.91683C9.91993 7.91683 10.3227 7.75001 10.6196 7.45308C10.9165 7.15615 11.0833 6.75342 11.0833 6.3335C11.0833 5.91357 10.9165 5.51084 10.6196 5.21391C10.3227 4.91698 9.91993 4.75016 9.5 4.75016Z" fill="white"/>
  </svg>
  
</svg>